<svg id="图层_1" data-name="图层 1" xmlns="http://www.w3.org/2000/svg" viewBox="0 0 164.68 164.43"><defs><style>.cls-1{fill:#edaf6e;stroke:#604c3f;stroke-miterlimit:10;stroke-width:3px;}</style></defs><title>未标题-2</title><path class="cls-1" d="M60.18,35.58c-11,0-20,10.61-20,23.7,0,10.46,5.71,19.33,13.63,22.48L50.5,119.89a8.79,8.79,0,0,0,8.75,8.79h1.61a8.79,8.79,0,0,0,8.74-8.79Q67.8,100.93,66,82C74.19,79,80.16,70,80.16,59.28,80.16,46.19,71.22,35.58,60.18,35.58Z"/><path class="cls-1" d="M122,42.32a3.11,3.11,0,0,0-3.1-3.12h-7.48V63.29h-4.84v-24H99.75v24H95.14v-24h-7l0,.11h-.66a3.13,3.13,0,0,0-3.11,3.12V62.78a3,3,0,0,0,0,.52A18.78,18.78,0,0,0,97.35,81.12L94,119.89a8.79,8.79,0,0,0,8.75,8.79h1.61a8.79,8.79,0,0,0,8.75-8.79q-1.86-19.41-3.71-38.84A18.77,18.77,0,0,0,122,63.85c0-.13,0-.26,0-.39Z"/></svg>