<svg id="图层_1" data-name="图层 1" xmlns="http://www.w3.org/2000/svg" viewBox="0 0 152.43 164.43"><defs><style>.cls-1{fill:none;stroke:#4d3015;stroke-miterlimit:10;stroke-width:3px;}</style></defs><title>未标题-2</title><path class="cls-1" d="M58.65,37.11c-11,0-20,10.61-20,23.7,0,10.46,5.72,19.33,13.64,22.48L49,121.43a8.79,8.79,0,0,0,8.75,8.78h1.61a8.78,8.78,0,0,0,8.74-8.78q-1.8-19-3.61-37.94c8.2-2.95,14.17-12,14.17-22.68C78.63,47.72,69.68,37.11,58.65,37.11Z"/><path class="cls-1" d="M120.51,43.85a3.12,3.12,0,0,0-3.1-3.12h-7.48v24.1h-4.84v-24H98.22v24H93.6v-24H86.65l0,.12H86a3.12,3.12,0,0,0-3.1,3.12V64.31a4.73,4.73,0,0,0,0,.53A18.78,18.78,0,0,0,95.82,82.65l-3.39,38.78a8.79,8.79,0,0,0,8.75,8.78h1.61a8.78,8.78,0,0,0,8.74-8.78q-1.84-19.43-3.7-38.85a18.8,18.8,0,0,0,12.66-17.2c0-.13,0-.26,0-.39Z"/></svg>